<svg width="204" height="204" viewBox="0 0 204 204" fill="none" xmlns="http://www.w3.org/2000/svg">
<path d="M166.979 76.34C142.038 70.135 116.242 68.1075 90.6387 70.34L144.839 54.23L160.979 0C157.805 25.5908 159.846 51.5593 166.979 76.34V76.34Z" fill="black"/>
<path d="M148.639 139.86C141.159 149.154 131.066 155.994 119.662 159.498C108.257 163.001 96.0652 163.008 84.6573 159.516C73.2495 156.024 63.1494 149.195 55.6598 139.909C48.1702 130.622 43.6346 119.305 42.6381 107.417C41.6416 95.5281 44.2299 83.6137 50.0691 73.2102C55.9083 62.8066 64.7305 54.3912 75.3979 49.0492C86.0653 43.7073 98.0886 41.6839 109.917 43.2401C121.745 44.7963 132.836 49.8607 141.759 57.78H158.829C149.317 45.7043 136.197 36.9821 121.381 32.8849C106.565 28.7877 90.8274 29.5297 76.4626 35.0025C62.0978 40.4754 49.8565 50.3932 41.5228 63.3102C33.1892 76.2272 29.1989 91.4683 30.1335 106.812C31.0682 122.155 36.879 136.8 46.7189 148.609C56.5588 160.419 69.9135 168.778 84.8364 172.467C99.7593 176.156 115.47 174.982 129.679 169.116C143.888 163.251 155.853 153.001 163.829 139.86H148.639Z" fill="black"/>
</svg>
