<svg width="200" height="200" viewBox="0 0 200 200" fill="none" xmlns="http://www.w3.org/2000/svg">
<g clip-path="url(#clip0)">
<path d="M131.326 170.784C145.272 164.663 157.09 154.543 165.284 141.706L150.907 132.528C144.527 142.522 135.327 150.4 124.47 155.166C113.613 159.932 101.587 161.371 89.912 159.301C78.2371 157.232 67.438 151.747 58.8804 143.54C50.3228 135.333 44.3909 124.773 41.835 113.195C39.2791 101.617 40.2139 89.5405 44.5213 78.4937C48.8286 67.4468 56.3149 57.9253 66.0336 51.1332C75.7523 44.3411 87.2669 40.5834 99.1212 40.3354C107.959 40.1505 116.689 41.9224 124.701 45.4795L94.2384 61.6406L166.192 59.9594L131.315 -0.448151L134.194 31.0888C123.212 25.7206 111.069 23.0249 98.7644 23.2823C83.5373 23.6009 68.7467 28.4277 56.2628 37.1523C43.7789 45.8769 34.1626 58.1074 28.6297 72.2974C23.0969 86.4873 21.8961 101.999 25.1792 116.872C28.4623 131.744 36.0819 145.309 47.0743 155.851C58.0667 166.393 71.9384 173.438 86.935 176.096C101.932 178.754 117.38 176.906 131.326 170.784Z" fill="black"/>
</g>
<defs>
<clipPath id="clip0">
<rect width="200" height="200" fill="white"/>
</clipPath>
</defs>
</svg>
