<svg width="957" height="957" viewBox="0 0 957 957" fill="none" xmlns="http://www.w3.org/2000/svg">
<path d="M336 0V60H276V113H336V172H217V226H336V396.5L280 370V424L336 451V564H395V479L451 506V451L395 424V226H514V172H395V113H455V59H395V0H336Z" fill="black"/>
<path d="M621 957L621 897L681 897L681 844L621 844L621 785L740 785L740 731L621 731L621 560.5L677 587L677 533L621 506L621 393L562 393L562 478L506 451L506 506L562 533L562 731L443 731L443 785L562 785L562 844L502 844L502 898L562 898L562 957L621 957Z" fill="black"/>
<path d="M957 336L897 336L897 276L844 276L844 336L785 336L785 217L731 217L731 336L560.5 336L587 280L533 280L506 336L393 336L393 395L478 395L451 451L506 451L533 395L731 395L731 514L785 514L785 395L844 395L844 455L898 455L898 395L957 395L957 336Z" fill="black"/>
<path d="M1.41906e-06 620L60 620L60 680L113 680L113 620L172 620L172 739L226 739L226 620L396.5 620L370 676L424 676L451 620L564 620L564 561L479 561L506 505L451 505L424 561L226 561L226 442L172 442L172 561L113 561L113 501L59 501L59 561L2.12263e-06 561L1.41906e-06 620Z" fill="black"/>
</svg>
